<mxfile host="app.diagrams.net" modified="2023-06-27T12:38:45.894Z" agent="Mozilla/5.0 (Windows NT 10.0; Win64; x64) AppleWebKit/537.36 (KHTML, like Gecko) Chrome/114.0.0.0 Safari/537.36" etag="wRj2LCBCwL2Pp8dsh8CZ" version="21.5.1" type="device">
  <diagram name="Page-1" id="7IgBzIpxljCSJRd68auL">
    <mxGraphModel dx="2350" dy="884" grid="1" gridSize="10" guides="1" tooltips="1" connect="1" arrows="1" fold="1" page="1" pageScale="1" pageWidth="850" pageHeight="1100" math="0" shadow="0">
      <root>
        <mxCell id="0" />
        <mxCell id="1" parent="0" />
        <mxCell id="Hn-K6RGujtg6fIdzKBkH-39" value="" style="edgeStyle=orthogonalEdgeStyle;rounded=0;orthogonalLoop=1;jettySize=auto;html=1;" edge="1" parent="1" source="Hn-K6RGujtg6fIdzKBkH-1" target="Hn-K6RGujtg6fIdzKBkH-4">
          <mxGeometry relative="1" as="geometry" />
        </mxCell>
        <mxCell id="Hn-K6RGujtg6fIdzKBkH-1" value="START" style="ellipse;whiteSpace=wrap;html=1;" vertex="1" parent="1">
          <mxGeometry x="-90" y="150" width="120" height="80" as="geometry" />
        </mxCell>
        <mxCell id="Hn-K6RGujtg6fIdzKBkH-31" style="edgeStyle=orthogonalEdgeStyle;rounded=0;orthogonalLoop=1;jettySize=auto;html=1;" edge="1" parent="1" source="Hn-K6RGujtg6fIdzKBkH-4" target="Hn-K6RGujtg6fIdzKBkH-32">
          <mxGeometry relative="1" as="geometry">
            <mxPoint x="270" y="310" as="targetPoint" />
          </mxGeometry>
        </mxCell>
        <mxCell id="Hn-K6RGujtg6fIdzKBkH-4" value="A, B, C, TEMP" style="shape=parallelogram;perimeter=parallelogramPerimeter;whiteSpace=wrap;html=1;fixedSize=1;" vertex="1" parent="1">
          <mxGeometry x="71" y="160" width="120" height="60" as="geometry" />
        </mxCell>
        <mxCell id="Hn-K6RGujtg6fIdzKBkH-8" style="edgeStyle=orthogonalEdgeStyle;rounded=0;orthogonalLoop=1;jettySize=auto;html=1;" edge="1" parent="1" source="Hn-K6RGujtg6fIdzKBkH-7">
          <mxGeometry relative="1" as="geometry">
            <mxPoint x="130" y="520" as="targetPoint" />
          </mxGeometry>
        </mxCell>
        <mxCell id="Hn-K6RGujtg6fIdzKBkH-28" style="edgeStyle=orthogonalEdgeStyle;rounded=0;orthogonalLoop=1;jettySize=auto;html=1;entryX=0;entryY=0.5;entryDx=0;entryDy=0;" edge="1" parent="1" source="Hn-K6RGujtg6fIdzKBkH-7" target="Hn-K6RGujtg6fIdzKBkH-29">
          <mxGeometry relative="1" as="geometry">
            <mxPoint x="40" y="730" as="targetPoint" />
            <Array as="points">
              <mxPoint x="30" y="430" />
              <mxPoint x="30" y="730" />
            </Array>
          </mxGeometry>
        </mxCell>
        <mxCell id="Hn-K6RGujtg6fIdzKBkH-7" value="B+1&amp;gt;A?" style="rhombus;whiteSpace=wrap;html=1;rounded=0;" vertex="1" parent="1">
          <mxGeometry x="71" y="400" width="120" height="60" as="geometry" />
        </mxCell>
        <mxCell id="Hn-K6RGujtg6fIdzKBkH-19" style="edgeStyle=orthogonalEdgeStyle;rounded=0;orthogonalLoop=1;jettySize=auto;html=1;entryX=0;entryY=0.5;entryDx=0;entryDy=0;" edge="1" parent="1" source="Hn-K6RGujtg6fIdzKBkH-14" target="Hn-K6RGujtg6fIdzKBkH-18">
          <mxGeometry relative="1" as="geometry" />
        </mxCell>
        <mxCell id="Hn-K6RGujtg6fIdzKBkH-25" style="edgeStyle=orthogonalEdgeStyle;rounded=0;orthogonalLoop=1;jettySize=auto;html=1;entryX=0.5;entryY=1;entryDx=0;entryDy=0;" edge="1" parent="1" source="Hn-K6RGujtg6fIdzKBkH-14" target="Hn-K6RGujtg6fIdzKBkH-20">
          <mxGeometry relative="1" as="geometry">
            <Array as="points">
              <mxPoint x="130" y="650" />
              <mxPoint x="490" y="650" />
            </Array>
          </mxGeometry>
        </mxCell>
        <mxCell id="Hn-K6RGujtg6fIdzKBkH-14" value="A%C = 0?" style="rhombus;whiteSpace=wrap;html=1;rounded=0;" vertex="1" parent="1">
          <mxGeometry x="70" y="520" width="120" height="60" as="geometry" />
        </mxCell>
        <mxCell id="Hn-K6RGujtg6fIdzKBkH-21" value="" style="edgeStyle=orthogonalEdgeStyle;rounded=0;orthogonalLoop=1;jettySize=auto;html=1;" edge="1" parent="1" source="Hn-K6RGujtg6fIdzKBkH-18" target="Hn-K6RGujtg6fIdzKBkH-20">
          <mxGeometry relative="1" as="geometry" />
        </mxCell>
        <mxCell id="Hn-K6RGujtg6fIdzKBkH-18" value="A" style="shape=parallelogram;perimeter=parallelogramPerimeter;whiteSpace=wrap;html=1;fixedSize=1;" vertex="1" parent="1">
          <mxGeometry x="230" y="520" width="120" height="60" as="geometry" />
        </mxCell>
        <mxCell id="Hn-K6RGujtg6fIdzKBkH-22" style="edgeStyle=orthogonalEdgeStyle;rounded=0;orthogonalLoop=1;jettySize=auto;html=1;entryX=1;entryY=0.5;entryDx=0;entryDy=0;" edge="1" parent="1" source="Hn-K6RGujtg6fIdzKBkH-20" target="Hn-K6RGujtg6fIdzKBkH-7">
          <mxGeometry relative="1" as="geometry">
            <mxPoint x="440" y="440" as="targetPoint" />
            <Array as="points">
              <mxPoint x="490" y="430" />
            </Array>
          </mxGeometry>
        </mxCell>
        <mxCell id="Hn-K6RGujtg6fIdzKBkH-20" value="A+1" style="whiteSpace=wrap;html=1;" vertex="1" parent="1">
          <mxGeometry x="430" y="520" width="120" height="60" as="geometry" />
        </mxCell>
        <mxCell id="Hn-K6RGujtg6fIdzKBkH-23" value="YA" style="text;html=1;strokeColor=none;fillColor=none;align=center;verticalAlign=middle;whiteSpace=wrap;rounded=0;" vertex="1" parent="1">
          <mxGeometry x="191" y="510" width="60" height="30" as="geometry" />
        </mxCell>
        <mxCell id="Hn-K6RGujtg6fIdzKBkH-26" value="TIDAK&lt;br&gt;" style="text;html=1;strokeColor=none;fillColor=none;align=center;verticalAlign=middle;whiteSpace=wrap;rounded=0;" vertex="1" parent="1">
          <mxGeometry x="130" y="610" width="60" height="30" as="geometry" />
        </mxCell>
        <mxCell id="Hn-K6RGujtg6fIdzKBkH-27" value="YA" style="text;html=1;strokeColor=none;fillColor=none;align=center;verticalAlign=middle;whiteSpace=wrap;rounded=0;" vertex="1" parent="1">
          <mxGeometry x="120" y="470" width="60" height="30" as="geometry" />
        </mxCell>
        <mxCell id="Hn-K6RGujtg6fIdzKBkH-29" value="FINISH" style="ellipse;whiteSpace=wrap;html=1;" vertex="1" parent="1">
          <mxGeometry x="100" y="690" width="120" height="80" as="geometry" />
        </mxCell>
        <mxCell id="Hn-K6RGujtg6fIdzKBkH-30" value="TIDAK" style="text;html=1;strokeColor=none;fillColor=none;align=center;verticalAlign=middle;whiteSpace=wrap;rounded=0;" vertex="1" parent="1">
          <mxGeometry x="10" y="390" width="60" height="30" as="geometry" />
        </mxCell>
        <mxCell id="Hn-K6RGujtg6fIdzKBkH-34" value="" style="edgeStyle=orthogonalEdgeStyle;rounded=0;orthogonalLoop=1;jettySize=auto;html=1;" edge="1" parent="1" source="Hn-K6RGujtg6fIdzKBkH-32" target="Hn-K6RGujtg6fIdzKBkH-33">
          <mxGeometry relative="1" as="geometry" />
        </mxCell>
        <mxCell id="Hn-K6RGujtg6fIdzKBkH-41" style="edgeStyle=orthogonalEdgeStyle;rounded=0;orthogonalLoop=1;jettySize=auto;html=1;entryX=0.5;entryY=0;entryDx=0;entryDy=0;" edge="1" parent="1" source="Hn-K6RGujtg6fIdzKBkH-32" target="Hn-K6RGujtg6fIdzKBkH-7">
          <mxGeometry relative="1" as="geometry">
            <Array as="points">
              <mxPoint x="300" y="290" />
              <mxPoint x="131" y="290" />
            </Array>
          </mxGeometry>
        </mxCell>
        <mxCell id="Hn-K6RGujtg6fIdzKBkH-32" value="A&amp;gt;B?" style="rhombus;whiteSpace=wrap;html=1;rounded=0;" vertex="1" parent="1">
          <mxGeometry x="240" y="160" width="120" height="60" as="geometry" />
        </mxCell>
        <mxCell id="Hn-K6RGujtg6fIdzKBkH-36" value="" style="edgeStyle=orthogonalEdgeStyle;rounded=0;orthogonalLoop=1;jettySize=auto;html=1;" edge="1" parent="1" source="Hn-K6RGujtg6fIdzKBkH-33" target="Hn-K6RGujtg6fIdzKBkH-35">
          <mxGeometry relative="1" as="geometry" />
        </mxCell>
        <mxCell id="Hn-K6RGujtg6fIdzKBkH-33" value="TEMP = A" style="rounded=0;whiteSpace=wrap;html=1;" vertex="1" parent="1">
          <mxGeometry x="440" y="160" width="120" height="60" as="geometry" />
        </mxCell>
        <mxCell id="Hn-K6RGujtg6fIdzKBkH-38" value="" style="edgeStyle=orthogonalEdgeStyle;rounded=0;orthogonalLoop=1;jettySize=auto;html=1;" edge="1" parent="1" source="Hn-K6RGujtg6fIdzKBkH-35" target="Hn-K6RGujtg6fIdzKBkH-37">
          <mxGeometry relative="1" as="geometry" />
        </mxCell>
        <mxCell id="Hn-K6RGujtg6fIdzKBkH-35" value="A = B" style="rounded=0;whiteSpace=wrap;html=1;" vertex="1" parent="1">
          <mxGeometry x="640" y="160" width="120" height="60" as="geometry" />
        </mxCell>
        <mxCell id="Hn-K6RGujtg6fIdzKBkH-43" style="edgeStyle=orthogonalEdgeStyle;rounded=0;orthogonalLoop=1;jettySize=auto;html=1;" edge="1" parent="1" source="Hn-K6RGujtg6fIdzKBkH-37" target="Hn-K6RGujtg6fIdzKBkH-7">
          <mxGeometry relative="1" as="geometry">
            <Array as="points">
              <mxPoint x="900" y="340" />
              <mxPoint x="131" y="340" />
            </Array>
          </mxGeometry>
        </mxCell>
        <mxCell id="Hn-K6RGujtg6fIdzKBkH-37" value="B = TEMP" style="whiteSpace=wrap;html=1;rounded=0;" vertex="1" parent="1">
          <mxGeometry x="840" y="160" width="120" height="60" as="geometry" />
        </mxCell>
        <mxCell id="Hn-K6RGujtg6fIdzKBkH-40" value="YA" style="text;html=1;strokeColor=none;fillColor=none;align=center;verticalAlign=middle;whiteSpace=wrap;rounded=0;" vertex="1" parent="1">
          <mxGeometry x="360" y="160" width="60" height="30" as="geometry" />
        </mxCell>
        <mxCell id="Hn-K6RGujtg6fIdzKBkH-42" value="TIDAK" style="text;html=1;strokeColor=none;fillColor=none;align=center;verticalAlign=middle;whiteSpace=wrap;rounded=0;" vertex="1" parent="1">
          <mxGeometry x="320" y="240" width="60" height="30" as="geometry" />
        </mxCell>
      </root>
    </mxGraphModel>
  </diagram>
</mxfile>
